<svg xmlns="http://www.w3.org/2000/svg" viewBox="0 0 268.33 315.38"><defs><style>.cls-1{fill:#d8cabc;}.cls-2{fill:#efefe4;}.cls-3{fill:#fa8a21;}.cls-4{fill:#fde38d;}.cls-5{fill:#c4c1bb;}.cls-6{fill:#cc7229;}.cls-7{fill:#3a2320;}</style></defs><g id="Background"><circle class="cls-1" cx="134.17" cy="157.69" r="117.18"/></g><g id="Logo"><g id="Logo-2" data-name="Logo"><g id="Fill"><path class="cls-2" d="M256.8,246.27a.26.26,0,0,0-.05.12,2.79,2.79,0,0,0,.12,1.46,1.93,1.93,0,0,0,1.28,1.08c.22,0,.66,0,.81-.15l0-.05c.16-.39-.4-1.16-.61-1.45S257.12,245.89,256.8,246.27Z" transform="translate(-115.83 -92.31)"/><path class="cls-2" d="M260.6,243.84a.81.81,0,0,0-.35.07c-.33.19-.31.78-.25,1.1a1.7,1.7,0,0,0,.58.93,4,4,0,0,0,2.4.83.64.64,0,0,0,.44-.1l0,0a.79.79,0,0,0,.15-.25c.3-.76.59-2.07-.35-2.48A6.06,6.06,0,0,0,260.6,243.84Z" transform="translate(-115.83 -92.31)"/><path class="cls-2" d="M266.23,228.16a2.9,2.9,0,0,0,1.31-1.21,1.45,1.45,0,0,0-.78-2.15,17.49,17.49,0,0,0-7-.9c-1.39,0-3.19,0-4.29,1a2.72,2.72,0,0,0-.77,2.75,2.42,2.42,0,0,0,.73,1.16c1.15,1,3,.74,4.38.63a30.39,30.39,0,0,0,4.74-.76A7.34,7.34,0,0,0,266.23,228.16Z" transform="translate(-115.83 -92.31)"/><path class="cls-2" d="M283.84,250.65c-1.53,0-3.89.59-4.11,2.41-.09.72.37,1,1,1.28a4.15,4.15,0,0,0,2.29.09,5.29,5.29,0,0,0,1.36-.45,1.83,1.83,0,0,0,.48-.39,2.38,2.38,0,0,0,.36-1.79A1.36,1.36,0,0,0,283.84,250.65Z" transform="translate(-115.83 -92.31)"/><path class="cls-2" d="M292,214.57a155.94,155.94,0,0,1-6.74-15,120.64,120.64,0,0,0,3.47,14.82c2.18,6.16,9.41,13.28,8.55,22.94v0c0,.4-.06.81-.1,1.22,0,2.12-1,4.41-1.7,6.38a65.23,65.23,0,0,1-3.85,8.63l-.39.71c-2,3.82-7,6.42-11.5,7.86l-.32.1a31.13,31.13,0,0,1-4.2,1,15.26,15.26,0,0,1-4.88-.24l-2.55,8.77a30.08,30.08,0,0,0,5.1,9.25h0c1.64,2.06,4.17,3.48,6.6,4.84l0,0a11.28,11.28,0,0,0,5,1.72c5.32.8,9.32-3.75,12.43-7.4,6.82-8.23,7.66-19.57,6.57-29.78A107.15,107.15,0,0,0,292,214.57Zm-8,63.25c-1.71,1.84-4.86-.08-4.82-2.32,0-1.26,1.72-2.69,2.87-2.76a3,3,0,0,1,3.18,2.85A2.75,2.75,0,0,1,284,277.82Zm10.74-2.67a2.76,2.76,0,0,1-2.52.33c-2.5-.32-2.79-4-.95-5.27,1-.72,3.18-.19,3.92.7A3,3,0,0,1,294.76,275.15Zm1.14-11.39c-1.72,1.84-4.86-.08-4.82-2.32,0-1.26,1.72-2.69,2.87-2.76a3,3,0,0,1,3.17,2.85A2.74,2.74,0,0,1,295.9,263.76Z" transform="translate(-115.83 -92.31)"/><path class="cls-2" d="M264.76,277.44a42.69,42.69,0,0,0-8.78,2.13,85.43,85.43,0,0,1-9.77,3c-7.78,2-11.06,1.7-13.73,1.13a5.64,5.64,0,0,0,1.41,1.27c1.21.77,2.37,1.54,3.62,2.27.63.37,1.25.73,1.89,1.08a40.17,40.17,0,0,0,4,1.91,43.33,43.33,0,0,0,21.77,2.91c1.22-.15,2.43-.36,3.64-.63s2.29-.64,3.46-.87l.22-.05a9.8,9.8,0,0,0,1.29-.44l3.78-1.47-.18-.08A26.66,26.66,0,0,1,264.76,277.44Z" transform="translate(-115.83 -92.31)"/><path class="cls-2" d="M248.08,158.93c-.29-1.2-.56-2.41-.75-3.63-.14.14-.26.29-.39.43-1.41-3.4-3.53-6.7-6.32-7.59a5.84,5.84,0,0,0-1.23-.6,23,23,0,0,0-12.67-1.07c-6.09.9-11.59,3.72-17.27,6l-3,1.12-.53.18-.17.08c-2.11.78-4.75,1.74-7,2.53a30,30,0,0,0-2.92,1h0c-4.43,1.86-7.08,4.53-7.84,7.85-1,4.37-3.31,10.91.14,11.06s11.65-4.44,13.27-5.11a4.33,4.33,0,0,0,1.55-2l.11-.09-.08,0c1.08-2,2.43-5.1,5.18-7.48a13.1,13.1,0,0,1,2.24-1.54c-1.72,1.54-2.43,3.25-4.35,7.2-.14.27-.27.54-.4.81l.17-.2a17.8,17.8,0,0,1,1.56-1c.62-.46,1.23-.95,1.83-1.44,3.34-2.72,6.67-5,11-5.68a26.22,26.22,0,0,1,4.06-.28c.7,0,1.4,0,2.1.05a6.48,6.48,0,0,1,1.87.13,13.55,13.55,0,0,0-9.18-2.86,26.65,26.65,0,0,1,8.6-1.1,12.41,12.41,0,0,1,8.65,4.48c2.54,2.94,3.48,6.62,3.69,10.45a24.53,24.53,0,0,1-.08,3.83,34.2,34.2,0,0,0-.56,3.54,4.48,4.48,0,0,0,1.89-1.82c.25-.38,1.27-1.77,1.16-2.21a6.68,6.68,0,0,1-.36,4.25,5.68,5.68,0,0,0,2.26-2.63,7.15,7.15,0,0,1,.38,3,44.58,44.58,0,0,1,1.8-4.88,14,14,0,0,1,1.1-2.35,6.74,6.74,0,0,1,.61-.71c.15-.18.76-.67.79-.88-.6,4.1-1.08,8.33-3.06,12a5.92,5.92,0,0,0,2.82-4.09c1.31-5.18,2.73-10.6,2.22-15.92-.13-5.73-1.78-12.09-5-14.88l0,0-.16-.15-.38-.29-.18-.13a3.21,3.21,0,0,0-1.84-.77,9.5,9.5,0,0,0-2.6-.26,2.33,2.33,0,0,0,1.47,1.45,12.78,12.78,0,0,1,3.85,4.1l-.43.13.59.12a21,21,0,0,1,3.26,10.34,28,28,0,0,1-.46,5.24c0-.75-.07-2.08-.09-2.77A19.14,19.14,0,0,0,248.08,158.93Zm-3.63,10.79a.86.86,0,0,1,0-.16.35.35,0,0,1,.11,0Z" transform="translate(-115.83 -92.31)"/><path class="cls-2" d="M222.54,175c3.79-2,.59-9.51-3.64-7.48S218.58,176.37,222.54,175Z" transform="translate(-115.83 -92.31)"/><path class="cls-2" d="M281,223.17c-6.77-3-14.77-4.9-22-2.3,11.62,1,24.18,3.66,32.63,12.31C290.3,228.09,285.41,225.3,281,223.17Z" transform="translate(-115.83 -92.31)"/><path class="cls-2" d="M291.55,195c1.32,4.71,6.49,7.62,11.16,8,3.91-.46,8.14-2.05,10.11-5.7,2.16-4,3.92-8.51,2.94-13.12a26.1,26.1,0,0,1-2.15,10.06c-2.62,6.37-11.23,8.7-17.09,5.58C294.39,198.73,293.14,196.64,291.55,195Z" transform="translate(-115.83 -92.31)"/><path class="cls-2" d="M208.75,173.18c.49,4.65,2.28,9.56,6.29,12.29s9.8,4.83,14.54,2.49c3.14-1.54,5.22-4.64,6.92-7.57,2.32-4,1.54-9.08-.79-12.91,1.84,7-.84,15.53-7.76,18.6-4.63,2.52-9.58.26-13.27-2.69C211.51,180.85,209.75,177,208.75,173.18Z" transform="translate(-115.83 -92.31)"/><path class="cls-2" d="M201.31,221.49c7.36-6.34,16.76-9.76,24.29-16-1.16,0-2.34,0-3.5-.16A28.26,28.26,0,0,1,210,197.23c.22.13.44.27.67.39a33,33,0,0,0,11.08,3.71,38.47,38.47,0,0,0,5.88.07,18,18,0,0,0,8.92-2.94c.53-.43,3.33-2.8,3.18-5.25s-.48-7-3.18-7.79a14.48,14.48,0,0,1-3,2.7,15.68,15.68,0,0,1-8.11,2.52c-7.31.32-15.47-2.93-19.69-9.06a34.36,34.36,0,0,1-2.24-3.91,16.2,16.2,0,0,0-1.11-2.36c-5.68-.06-11.83,2.49-15.16,7.16-7,9.81-7.33,23.37-5.82,34.87.41,3.17.79,6.84,2,9.83a31.21,31.21,0,0,0,4.33,6.86c.24.32,3,3.18,3,3.48a29,29,0,0,1,2.92-7.17,25.66,25.66,0,0,1,2.84-3.9A47.52,47.52,0,0,1,201.31,221.49Z" transform="translate(-115.83 -92.31)"/><path class="cls-2" d="M252.45,275.46q2.87-.91,5.69-2c1.78-.67,3.64-1.44,4.78-3a7.53,7.53,0,0,0,1.29-3.85c0-.29.4-4.06.44-4-14.1-7.47-16.55-12.82-18.79-22.28a30.1,30.1,0,0,1-.83-9.53l.06-.18h0a17.39,17.39,0,0,1,2.12-7,17.73,17.73,0,0,1,3.1-3.64l.1-.09a15.66,15.66,0,0,1,6.44-3.45c9.18-2.24,18.88-.16,27.4,3.53l.31.17c2.83-.05,2.4-2.51,1-6.93-1.28-4.1-3.6-17.16-4-28.4a43,43,0,0,1,.47-10.81l0-.19a2.17,2.17,0,0,0,0-.25c0-.21.08-.42.11-.63.17-.91.31-1.65.44-2.24l0-.09a.5.5,0,0,1,0-.12c.45-2.05,1-4.09,1.57-6.1a72.64,72.64,0,0,0,2.76-15.06,46.16,46.16,0,0,0-1.13-15.14,15.1,15.1,0,0,0,1,1.66,9.7,9.7,0,0,1,.6,1.82c.38,1.46.7,2.93.95,4.42a56.75,56.75,0,0,1,.82,8.83,43.9,43.9,0,0,1-.19,5.5c-.06.55-.56,5.19-1.08,5.24l.75-.06c1.6-2.74,3.61-5.59,6.73-6.69,9.76-3,17.78,5.88,25.94,9.46a2.74,2.74,0,0,0,1.94.29,14.65,14.65,0,0,0-.57-2.18,10.22,10.22,0,0,0-.42-1,49.57,49.57,0,0,0-9.15-7.86,35.61,35.61,0,0,1,7.32,3.39,21.93,21.93,0,0,1-.43-5.73c.21-7.19-6.26-13.79-21.81-18.51a100,100,0,0,1-9.54-3.53c-10.55-4-21.53-7.32-32.86-7.92-3.2-.21-6.43-.83-9.62-.26a31.67,31.67,0,0,1,7.52,4.29c5.23,4.56,8.24,11.15,10.12,17.72-.15,1-.3,2-.46,3.05-1.7-5.57-3.33-11.55-7.58-15.79a28.14,28.14,0,0,0-6.47-4.88c1.42,1.83,3.39,3.12,4.79,5,2.66,4,4.87,8.41,5.48,13.23a39,39,0,0,0-3.08-6.81c-1.74-3-4.36-5.3-6.13-8.26a9.44,9.44,0,0,0-4.33-3.5,80.77,80.77,0,0,0-18.79-6.27c-5-1.15-7.63-6.12-9.87-6.16s-5.11,11.67-5.11,11.67a4.84,4.84,0,0,1,1.84,2.23,1.79,1.79,0,0,0-.24-.12,10,10,0,0,0,.43.94,4.31,4.31,0,0,1-1,3.07c-1.28,1.72-4.65,6.65-8,11.55-.29-.2-.72-.1-1.31.3.06.5.23.8.5.9-3.73,5.52-7.16,10.66-7.16,10.66a45.61,45.61,0,0,0,13.31-5.09s1.93-1.1,7.46-3.71c4.71-.69,9.18-2.62,14-2.93,3.13-.26,6.31-1.15,9.44-.34a17.86,17.86,0,0,1,10.6,6.76c1.92,3.35,2.31,7.29,2.76,11.05a36.77,36.77,0,0,1-1,11.2,33,33,0,0,1-1.33,4,42.9,42.9,0,0,1-1.88,5.27,14.71,14.71,0,0,1-4.19,5.41c2.64-.27,5.39-.61,7.61-2.07,2.94-1.93,4.38-5.39,5.94-8.54,2.53-5.12,4.85-9.7,5.09-15.54q.29-6.89.34-13.78c1.11,1.22,1.22,3,1.25,4.66a72.62,72.62,0,0,1-1.45,16.72,39.24,39.24,0,0,1-8,17,54.64,54.64,0,0,1-3.94,3.82,11.59,11.59,0,0,1-3.93,2.11A25.74,25.74,0,0,0,245,192a6.47,6.47,0,0,1,3.65,1.94A14.23,14.23,0,0,0,243.3,195a9.77,9.77,0,0,0-1.86,1.25,14.61,14.61,0,0,0-2,2,25.58,25.58,0,0,0,3.41-1.32,21.09,21.09,0,0,1,3.5-1.56c-.36.11-.87.79-1.16,1s-.79.67-1.19,1c-.84.68-1.71,1.34-2.58,2-1.76,1.27-3.57,2.48-5.38,3.67-3.71,2.46-7.47,4.84-11.07,7.47a63.74,63.74,0,0,1-9.76,6.3,53,53,0,0,0-13.51,9.49,24.52,24.52,0,0,0-5.66,8.49,13.29,13.29,0,0,0-.87,5c0,.55-.07,1.41.38,1.81.69.63,1.46-.05,1.87-.62,1.35-1.87,2.43-3.9,3.81-5.74,4.58-6.09,10.87-11.58,18.5-13.2-1.07.77-2.18,1.51-3.29,2.26s-2.47,1.21-3.61,2a36.93,36.93,0,0,0-6.88,6.18c-4.79,7.18-4.31,11.78-4.31,11.78s-.84-1-.7-3.74a17.41,17.41,0,0,1,.19-1.83,16.26,16.26,0,0,0-1.36,2.31,8.54,8.54,0,0,0-.87,4.29,4.2,4.2,0,0,0,.61,2.08,6.26,6.26,0,0,0,1.53,1,14.14,14.14,0,0,1,2.06,1.18c.09-9.61,3.29-13.34,5.16-17l.13,0c-.14.53-.27,1.06-.4,1.6,0,0-3.06,9.39-1.53,17.83s6,19.54,14.49,24.86c4.4,2.75,10.23,2.46,15.2,2A75,75,0,0,0,252.45,275.46ZM263.38,163c-.19.16-.6.48-.79.65.46-3.72.41-7.59,1.81-11.11A59.13,59.13,0,0,1,263.38,163Zm-41.29,90.85c-1.3,1.54-4.5.91-4.82-1.21-.19-1.19.84-2.14,1.71-2.79C221.36,248,224.34,252,222.09,253.81Zm.22-10.22a2.13,2.13,0,0,1,.43-2.69,2.85,2.85,0,0,1,2.4-1.12,3.82,3.82,0,0,1,3.1,2.84c.23,1.37-1.65,2.3-2.75,2.5A2.82,2.82,0,0,1,222.31,243.59Zm9.17,19.75c-1.54,1.82-5.55,1.79-6.28-.85a5.72,5.72,0,0,1-.09-2c.13-2,3.09-2.2,4.46-1.74C231.3,259.35,233.55,261.83,231.48,263.34Zm2.65-10.94c-1.72,1.83-4.86-.08-4.82-2.33,0-1.25,1.72-2.68,2.87-2.76a2.94,2.94,0,0,1,3.17,2.85A2.74,2.74,0,0,1,234.13,252.4Z" transform="translate(-115.83 -92.31)"/><path class="cls-2" d="M185.73,136.73A42.9,42.9,0,0,1,189,126.31c2.51-4.87,4.83-9.9,7.75-14.55a44.6,44.6,0,0,1,3.71-5.16c1-1.16,2.48-3.4,4.08-3.69a2.08,2.08,0,0,1,2,.82c1.21,1.61.23,5,.07,6.8a44.33,44.33,0,0,0-.15,7.64c.06.7.3,1.56,1,1.65s1-.41,1.31-.86c2.11-3.13,2.14-6.6,1.73-10.21-.47-4.11-.94-8.91-4.53-11.57-5.39-1.51-10.43,2.41-13.88,6.15-6.29,6.84-8.34,16.25-11.45,24.72a19.53,19.53,0,0,1-1.32,3,1,1,0,0,1-.34.38.63.63,0,0,1-.79-.35,1.88,1.88,0,0,1-.13-.94,24,24,0,0,0-2.91-12.81,15.77,15.77,0,0,0-10.34-7.71l-.43-.08c-5.28-.83-11.23,2-16.15,3.7-5.9,2-11.79,4.08-17.75,5.92-10.9,3.37-9.15,10.44-6.69,19.89,2,7.87,9.67,17.74,15.23,25,4.49,5.91,7.66,13,11.62,19.27q2.32,3.69,4.77,7.3c1.11,1.63,3.59,4.35,5.45,5a4.52,4.52,0,0,0,3.91-.52c1.69-1.05,2.55-2.93,3.43-4.63,1.68-3.27,3.18-6.63,4.82-9.92.32-.64.64-1.29.94-1.94a123.8,123.8,0,0,0,7.2-20.48C183,151.12,184.1,143.91,185.73,136.73Z" transform="translate(-115.83 -92.31)"/><path class="cls-2" d="M334.7,150.9c2.6,6.07,5.45,13.5,5.45,13.5-.78-10.21-4.76-18.87-7.27-22.42C332.88,142,332.1,144.84,334.7,150.9Z" transform="translate(-115.83 -92.31)"/><path class="cls-2" d="M320.31,169.88c-2.17-1.92-4.16-4.11-6.69-5.6a26.07,26.07,0,0,0-2.48-1.24,22.36,22.36,0,0,0-5.47-1.91,18.7,18.7,0,0,0-4.36-.07,18.08,18.08,0,0,0-5.15,1,12.58,12.58,0,0,0-3.35,2.19c-5,3.94-6.39,6.36-7.26,12.69a29.24,29.24,0,0,0-.16,5.34,16.88,16.88,0,0,1,1.27-2,10.49,10.49,0,0,1,4.47-3.36c-2.87,2.55-4.6,6.58-5.46,9.06.08.74.18,1.45.27,2.11a19.2,19.2,0,0,1,4.32-3.89,29.9,29.9,0,0,0-3.88,6.61c.22,1.23.39,2,.39,2s7.61-17,20.48-17.55c4.16.1,8,3.21,11,7.24.49.74,1,1.48,1.48,2.21.09.12.17.25.25.37.46.76.9,1.53,1.3,2.31,1.12,2.38,1.25,4.23.61,5-.87,1-3.58-.06-7.16,6.45-3.44,6.26-12.23,8.07-19.34,6.39a2.2,2.2,0,0,0-.83-.2l.18.63c.35,1.25.71,2.49,1.1,3.72a6.27,6.27,0,0,1,2.86-1.86A10.35,10.35,0,0,0,296.8,212c.5,1.2,1.08,2.37,1.65,3.56,1.55,3.3,2.9,6.7,4.24,10.08.25.72.51,1.42.8,2.11l0,.09c.44,1.25,1,3.4,1.57,5.8l0,.18.07,0c1.37,5.76,2.79,12.93,2.79,12.93a84.11,84.11,0,0,0,8.33-13.59c2.79-6.3,5.23-14.34,5.29-18.36,0-1.12-.17-2.63-1.21-3.28a2.45,2.45,0,0,0-1.7-.26c-3.4.42-6.65,1.75-10.06,2.09a6.58,6.58,0,0,0,1.72-.81c.58-.29,1.15-.59,1.72-.9a37.62,37.62,0,0,0,3.31-2l.48-.35,0,0c2.85-1.85,7.27-4.68,8-7.82s1.93-8.95,0-13.31v0c-1.37-3.65-6.79-9.71-9.26-11.42a14.49,14.49,0,0,0-4.63-2.14h0a29,29,0,0,1-5.32-1.75c.12,0,3.47-.71,6.07.53a22,22,0,0,1,5.74,3.33,34.39,34.39,0,0,1,4.54,5c.15.2.32.41.5.61l0,0c1.41,1.74,4.16,3.46,4.3-.25a19.29,19.29,0,0,0-.84-5.93C324.06,173.36,322.42,171.74,320.31,169.88ZM305.9,174.3c-.42,0-.9,0-1.41.06a37.23,37.23,0,0,0-8.56,1.81,13.13,13.13,0,0,0-5.05,2.76,9.82,9.82,0,0,1,5.05-4.33,7.71,7.71,0,0,1,.77-.3c.27-.1.54-.18.8-.25A16.66,16.66,0,0,1,305.9,174.3Z" transform="translate(-115.83 -92.31)"/><path class="cls-2" d="M311.37,186.53a2.14,2.14,0,0,0,.77-1.23,4.25,4.25,0,0,0,.1-1.84c-.12-.55-2.49-.66-2.93-.69s-2.32-.2-2.39.67v0C306.84,185.11,309.84,187.63,311.37,186.53Z" transform="translate(-115.83 -92.31)"/><path class="cls-2" d="M342.87,155.53a52.87,52.87,0,0,0-6.24-15.78c-1.69-2.82-4.9-7.36-8.67-7.09a4.85,4.85,0,0,0-3.92,3,15.84,15.84,0,0,0-1.79,6.38,6,6,0,0,1,6-3.31,3.77,3.77,0,0,0-3-1.18c.76-.12,1.36-.7,2.11-.84a4.32,4.32,0,0,1,3.91,1c2.6,2.2,4.21,5.28,5.58,8.34a62.21,62.21,0,0,1,3.82,10.86,101.12,101.12,0,0,1,1.76,11.89,115.63,115.63,0,0,1,1,17.14c0,1-.14,1.93-.25,2.89a39.22,39.22,0,0,0,1.09-7.15c.15-2.34.42-4.69.47-7.05a82.89,82.89,0,0,0-.83-13.36C343.64,159.33,343.29,157.42,342.87,155.53Z" transform="translate(-115.83 -92.31)"/><path class="cls-2" d="M371.32,175.1c-1.12,1-2.18,2.23-3.65,2.43a1.47,1.47,0,0,1-.72-.06,1.91,1.91,0,0,1-.7-.63l-2.81-3.49a5.84,5.84,0,0,0-3.14-2.43,5.47,5.47,0,0,0-2.78.4c-2.95,1-7.12,2.64-8.67,5.57-1.28,2.41-1.78,5.59-2.31,8.22a81.69,81.69,0,0,0-1.42,18.34c.52,17,6,20.53,8.17,18.82s9.87-12.94,13.3-20.72,9.41-12.67,11.87-19.14C380,178.37,375.75,171.27,371.32,175.1Z" transform="translate(-115.83 -92.31)"/><path class="cls-2" d="M298.2,189.82a2.94,2.94,0,0,0,1.82-1.27,1.25,1.25,0,0,0,0-1.13c-.62-1.3-2.12-.87-2.71.24a2,2,0,0,0,0,1.9A.84.84,0,0,0,298.2,189.82Z" transform="translate(-115.83 -92.31)"/><path class="cls-2" d="M191.08,244.5c-5,7.33-6.53,16.36-8.33,21.48S171,288.67,172.41,307.55,185.06,344,191.08,350s12.75,7.33,20.78,13.76,19,16.86,20.28,23.69,3.51,0,3.51,0,2,8.23,0,15a120.09,120.09,0,0,1,23.9-25.32C274,366,292.78,347.9,292.78,347.9s8.73.41,14.35-12.34,5.63-32.93,4.42-39.86-8.93-19.17-8.93-19.17-6.13,11.34-15,13.55-15.41,4.62-19.9,5.52-19.88,1.81-28-3.31-12.49-11.15-15.6-11.85-13.35-7.63-16-15.06-.17-11.3-4-12.78S191.08,244.5,191.08,244.5Z" transform="translate(-115.83 -92.31)"/><path class="cls-3" d="M191.71,241.78c.87-8.44,8-21.65,22.54-27.78a82.31,82.31,0,0,0,23.65-15.06s2.55-5.8,4.82-7.8,9.84-3.12,13.27-6.53,7.35-10.45,8.78-17.44a83.84,83.84,0,0,0,1.5-18.73H266a33,33,0,0,1-2.81-6.22c-1.38-4-4.66-14.14-14.2-18.45s-17.52-6-20.68-7-10.63-5.51-12.24-8.1-5.83-13.43-10.6-13.53-54.35,14-61.1,16.29-21.66,7.35-24.64,12.52,2.18,19.08,4.17,23.65,20,30.25,21.68,38.58,5.83,18.81,16,14.49,13.16-13.16,14.82-10-2.82,21.19,2.35,32.53A64.14,64.14,0,0,0,191.71,241.78Z" transform="translate(-115.83 -92.31)"/><path class="cls-4" d="M208.75,172c2.88,3.84,8.9,13,11.29,13.41s9.93-.8,12.47-4.35,1.37-13.54,3.26-13.84,2.1,3.69,2.75,6.37-1.59,8.85-3.4,11-4.5,6.45-9.5,5.8-13.63-3.41-16.45-6.89S208.75,172,208.75,172Z" transform="translate(-115.83 -92.31)"/><circle class="cls-2" cx="104.85" cy="78.86" r="5"/><path class="cls-3" d="M286.64,136.29c-.18-1.44,3.87.33,4.68,0s-1.49-2.5,1.63-2.36,13.78,5.43,21.79,4.14,9.19-8.38,16.23-6.7,19.77,25.51,28.65,30.46,15.56,9.25,20.94,14.44-4.07,18.94-7.71,23.34-14.4,23.07-17.74,27.12-11.06-7.09-11.06-7.09-3.58-27.55-3.9-31.41-3.22-11.17-6.64-9.48-7.57,12.75-7.75,22.93S319,233.17,315.1,239.76a33.34,33.34,0,0,1-8.18,9.6s-5.13-17.66-8.29-26.7-12.21-23.08-14.35-32.31,2.65-23.06,3.15-32.3.55-15.19.45-16.89A24,24,0,0,0,286.64,136.29Z" transform="translate(-115.83 -92.31)"/><path class="cls-2" d="M296.82,186.14c-.93,2.45-2.57,6.11,1.57,5.19s.92-2.94,6.11-3.7,8.72.71,9.09-1,1.72-5.06-.73-5.51-8.34.12-9,.61S296.82,186.14,296.82,186.14Z" transform="translate(-115.83 -92.31)"/><path class="cls-4" d="M291.26,194.05c1.07.92,7.06,5.95,10.44,5.95a12.61,12.61,0,0,0,13.1-11.77c.09-2.34.09-5.1.87-5s1.69,3,1.59,5.57-3.55,9.75-5,11.2-5.21,3.78-8.51,3.87-7.74.62-9.63-1.84-3.81-5.46-3.86-6.38A2.15,2.15,0,0,1,291.26,194.05Z" transform="translate(-115.83 -92.31)"/><path class="cls-5" d="M187.56,252.6c8.63,1.57,14.18,14.45,18.79,21.07s15.23,41.34,46.3,42,29.58-24.17,29.58-24.17-28.24,6.9-36.94,3.81-17-12.94-17-12.94-9.65-1.72-14.58-7.56-8.5-21.71-8.5-21.71l-14.59-7.88Z" transform="translate(-115.83 -92.31)"/><path class="cls-5" d="M239.68,282.49c7.94,2.84,24.37,6,32.19,2.95l-7.48-10.54Z" transform="translate(-115.83 -92.31)"/><path class="cls-5" d="M205.52,254.55c6.66,10.91,13.67,20.37,26.66,20.35s24.23-2,25.68-6.68-17.33-15.93-20-29.9c0,0,2.31-12.33,17.88-18.68,0,0-7.32,26.51-2.5,30.36s16.15,7.35,14.48,11.07-3.37,13.83-3.37,13.83-21.63,8.25-29.49,7.74-16.05-3.76-19.58-7.74-8.56-10-8.68-13.32A37.22,37.22,0,0,0,205.52,254.55Z" transform="translate(-115.83 -92.31)"/><path class="cls-5" d="M295.9,238.8c4.24,3.69,3.58,10.15,3.58,10.15s-8.27,9.65-14.23,13.74-13,5.13-14.41,7.18,5.46,12.89,11.64,14.47,14-1.68,14-1.68-3.72,7.22-10.64,6.83-14.68-7.27-18.05-10.93-1.5-12.11-.73-15.51,5.3-5.9,10.5-5.51,3.87,2.64,9.15-2.24,6.26-11.75,7.42-14.92S295.9,238.8,295.9,238.8Z" transform="translate(-115.83 -92.31)"/><path class="cls-6" d="M162.9,201.15c3.69-5.45-11.74-26.74-18.77-37.54s-15.1-26.05-14.4-35.23,1.58-11.59,1.58-11.59-11.27-2.64-12.49,7,2.83,23.3,6.69,28.69S143.73,179,146,188.23,162.9,201.15,162.9,201.15Z" transform="translate(-115.83 -92.31)"/><path class="cls-6" d="M205.52,181c4,7.62,7.71,12.28,15.16,13.8a27.42,27.42,0,0,0,14.22-1.25S227.08,205,210,197.23c0,0,11.44,6.24,13.23,6.63-.38-.08-1.4.52-1.75.65-2,.73-4,1.44-6.07,2.16-7.79,2.73-15.59,5.14-22.71,9.44-1.28.78-2.52,1.56-3.85,2.26-.81.42-1.6,1.23-2,0a5.5,5.5,0,0,1-.14-2.1,12,12,0,0,1,.75-3.29c.2-.52.42-1,.66-1.55.14-.32.37-1.14.65-1.34,0,0-3.06,2.19-3.76,3.76,0,0-4.88-9.58-2.9-24s-5.91,1.44-5.59,9.76,1.76,21,4.2,26.8a60.66,60.66,0,0,0,9,14.07c2,2.24,2.9-6.06,7.38-11.73S214,213.7,223.32,209.5s13.85-9.89,13.85-9.89,4.71-4.5,4.66-7.56-2.62-7.71-5-7.85-3,2.31-5.07,3.44-5.81,2.61-9.26,2.12-9.89-3.74-11.62-5.86S205.52,181,205.52,181Z" transform="translate(-115.83 -92.31)"/><path class="cls-6" d="M299.08,222.41c5.22,6.3,12.5,14.07,21.15,6.59,0,0-5.65,14.42-13.31,21Z" transform="translate(-115.83 -92.31)"/><path class="cls-6" d="M319.6,190.77c.48,5-2.9,11.68-6.56,14.57s-12.87,1.35-17.33,9.26c0,0-1.87-5.79-2-8.87s-2.63-5.88,2-3.76,11.54,2.64,15.11,0,5.37-7.43,6.45-9.07A5.56,5.56,0,0,1,319.6,190.77Z" transform="translate(-115.83 -92.31)"/><path class="cls-6" d="M376.57,174.25c2.14,7.16-3.14,12.38-7.66,19.25s-9.14,18-14.81,22.05-10.17,2-10.17,2,6.78,10.73,8.16,12,7.38-8.88,9.84-13.78a218.24,218.24,0,0,1,15.13-23.6c3.65-4.51,6.41-12,4.53-15.18A5.41,5.41,0,0,0,376.57,174.25Z" transform="translate(-115.83 -92.31)"/></g><g id="Outline"><path class="cls-7" d="M279.15,313c-1.94,1.8-3.51,4-5.59,5.73-2.39,2-4.87,3.84-7.34,5.71-1.24.93-2.47,1.86-3.7,2.81a11.87,11.87,0,0,0-1.48,1.26c-.27.29-.69,1-1.12,1.08a18.72,18.72,0,0,0,8.36-3.66C272.83,322.67,277,318.29,279.15,313Z" transform="translate(-115.83 -92.31)"/><path class="cls-7" d="M381.82,172.16c-4.52-3.77-9.83-6.44-14.66-9.76-8.23-5.3-15.06-12.5-20.85-20.32a45.72,45.72,0,0,0-4.34-5.19l0,0a18.33,18.33,0,0,0-6.64-5.36c2.95.69,5.84,1.71,8.71,2.65-.74-3.3-4.19-4.77-7-6a21.2,21.2,0,0,0-14.44-.5c-.29-2.31-2.37-4.56-4.84-4.15-5.39.7-9.05,7.65-14.92,5.62-10.38-4.5-20.68-9.46-31.83-11.76-14.71-3.45-29.89-2.84-44.88-3-2.38-3.19-5.24-6-7.79-9-2.78-4.81-5.14-10.86-10.95-12.68-5.82-1.36-11.61,1.05-17.06,2.86a230.45,230.45,0,0,1-23.76,7.49c-11.33,3-22.59,6.31-33.86,9.53-4.84,1.54-10,2.93-13.91,6.27-2.91,2.63-3,6.9-3,10.53.11,11.22,5.66,21.4,11.33,30.76,4,6.64,9.12,12.78,11.3,20.32,2.06,6.91.95,14.52,4.16,21.13,2.22,4.78,7.78,7.89,13,6.73,6.68-1,11.58-6.17,16-10.87-1.18,7.19-.06,14.55,2.06,21.47,2.75,9.32,8.17,17.53,14,25.15a117,117,0,0,0-6.37,16.74c-1.83,5.89-5.56,10.92-7.89,16.6-3.18,7.8-5.7,16.07-5.46,24.58a65.08,65.08,0,0,0,11,38.19c7.51,10.83,15,21.73,23.71,31.64,4.56,5.19,9.08,10.51,14.52,14.8-2.12-5.76-5.47-11.47-10.14-18.13-2.39-3.08-4.68-6.25-6.93-9.43,9.37,7.1,19.6,13.72,26.36,23.56,4.05,5.82,5.1,13,6.09,19.87,2.47-9.38,6.24-18.32,9-27.6-3.43,1.58-5.2,5.11-7.48,7.92-2.08-9.76-1.44-20.18-5.84-29.36-3.72-8.27-10-16.18-18.93-19,10.73,6.36,17.55,18.1,18.87,30.38.44,3.32,0,6.67,0,10-.38-.41-.76-.79-1.14-1.17-6.37-6.68-13.86-12.09-21-17.94-5.84-4.68-12.34-8.55-17.6-13.93-7.23-7.58-11-17.78-12.69-28-1.73-9.1-2-18.67.72-27.61a132.27,132.27,0,0,1,5.53-15.05c.13,7.89,2.17,15.53,3.82,23.18.35,1.16.48,2.51,1.44,3.38-2.82-11.4-2.26-34.44,1.56-43.18h0a17.39,17.39,0,0,1,3.43-5.53l1.08.26a54,54,0,0,0,9.83,6c1.61,5.95,8.28,26.11,25.47,29.61a34.72,34.72,0,0,0,20.05,13.64,19,19,0,0,1-4.14.7c-4.77.15-8.4.31-8.4.31a52.36,52.36,0,0,0,18,0c.65.07,1.29.12,1.94.15a40.13,40.13,0,0,0,7.64-.34,33.72,33.72,0,0,1-18.93,9.44c18.05-.51,20.74-4.62,26.69-11.23a32,32,0,0,0,9.12-4.57c-1.11,4.9-4.85,12-8.06,15.8,0,0,8.44-3.11,16.89-18a18.42,18.42,0,0,0,5-1.82c2.78,2.26,3.58,7.25,3.58,7.25a13.3,13.3,0,0,0-.62-9.31,16.83,16.83,0,0,0,1.28-1.26c4.83,5.23,6.12,14.65,6.12,14.65.21-6.46-1.09-12.82-3.88-17.67a20.38,20.38,0,0,0,1.14-2.24,27.21,27.21,0,0,1,4.77,10.69s0,.07,0,.1c2.09,7.84,1.93,16.27.92,24.29a53.52,53.52,0,0,1-6.29,19.34,24.17,24.17,0,0,1-5.79,7.51c4.78-10.47,8.7-21.84,7.77-33.51-1.85,2.85-1.52,6.6-2.5,9.83-.12.59-.24,1.18-.38,1.77-1.29,4.09-2.51,8.46-4.22,12.95q-1.2,2.91-2.5,5.77a53.29,53.29,0,0,1-10.07,14.21c-1.55,1.47-3.14,2.9-4.75,4.3s-2.83,2.35-3.57,3c-8.44,7-17.34,13.47-25.23,21.11-6.79,6.77-13.53,14-17.11,23.07a9.81,9.81,0,0,0-.76,2.8c14.5-19.67,25.3-25.06,35.38-33.05l.28-.22c3.69-3,7.41-5.92,11.13-8.84,4.42-3.44,8.56-7.23,13.09-10.51-3.14,6.72-8.14,12.31-12.33,18.36-1.31,2-3,3.85-3.81,6.09,7.29-7.31,20.82-21.52,29.33-34.28a84.58,84.58,0,0,0,9.33-21.83c2.84-12.2,1.08-25.09-3.76-36.54-1.63-4.63-4.43-8.77-5.66-13.55A101.66,101.66,0,0,0,308,262.38a29.55,29.55,0,0,0,.41-4.71c.08-1.31-.19-4.4.62-5.47,3.45-4.55,7.18-8.95,9.94-14a83,83,0,0,0,8.93-25.66c1.37-7.35.89-14.9,2-22.28,1.45-2.71,4.38-4.25,7-5.65,1.88,10.57,1.58,21.41,3.4,32a49.2,49.2,0,0,0,5.57,14.55c1.17,2,2.42,4,4.42,5.29,3.75,0,5.16-4.15,6.93-6.76,4.3-6.67,6.89-14.29,11.47-20.8,6.07-8.68,12-17.73,15-28C384.53,177.93,384.51,174.24,381.82,172.16ZM173,180.67c-1.64,3.29-3.14,6.65-4.82,9.92-.88,1.7-1.74,3.58-3.43,4.63a4.52,4.52,0,0,1-3.91.52c-1.86-.69-4.34-3.41-5.45-5q-2.44-3.62-4.77-7.3c-4-6.28-7.13-13.36-11.62-19.27-5.56-7.3-13.18-17.17-15.23-25-2.46-9.45-4.21-16.52,6.69-19.89,6-1.84,11.85-3.92,17.75-5.92,4.92-1.67,10.87-4.53,16.15-3.7l.43.08a15.77,15.77,0,0,1,10.34,7.71A24,24,0,0,1,178,130.18a1.88,1.88,0,0,0,.13.94.63.63,0,0,0,.79.35,1,1,0,0,0,.34-.38,19.53,19.53,0,0,0,1.32-3c3.11-8.47,5.16-17.88,11.45-24.72,3.45-3.74,8.49-7.66,13.88-6.15,3.59,2.66,4.06,7.46,4.53,11.57.41,3.61.38,7.08-1.73,10.21-.31.45-.76.93-1.31.86s-.93-.95-1-1.65a44.33,44.33,0,0,1,.15-7.64c.16-1.83,1.14-5.19-.07-6.8a2.08,2.08,0,0,0-2-.82c-1.6.29-3.11,2.53-4.08,3.69a44.6,44.6,0,0,0-3.71,5.16c-2.92,4.65-5.24,9.68-7.75,14.55a42.9,42.9,0,0,0-3.25,10.42c-1.63,7.18-2.73,14.39-4.63,21.52a123.8,123.8,0,0,1-7.2,20.48C173.6,179.38,173.28,180,173,180.67Zm76.18-13.89a28,28,0,0,0,.46-5.24,17.49,17.49,0,0,0-1-5.54,20.83,20.83,0,0,0-4-7.22,8.07,8.07,0,0,0-2.23-1.93,2.33,2.33,0,0,1-1.47-1.45s1.44,0,1.58.07a6.22,6.22,0,0,1,3.67,1.6,11.78,11.78,0,0,1,2.5,3.59,25.39,25.39,0,0,1,2.06,7.3c.18,1.31.19,2.63.32,3.94.51,5.32-.91,10.74-2.22,15.92a5.92,5.92,0,0,1-2.82,4.09s.05-.1.06-.12a.83.83,0,0,0,.07-.13l.13-.25.24-.52c.16-.35.31-.7.44-1.06a22.9,22.9,0,0,0,.78-2.43c.22-.82.4-1.66.56-2.5s.29-1.68.42-2.53l.18-1.27c.07-.44.15-.88.22-1.33l-.59.57-.17.18a3.81,3.81,0,0,0-.24.32c-.15.23-.31.44-.46.67a13.78,13.78,0,0,0-1.08,2.3,44.58,44.58,0,0,0-1.8,4.88,7.15,7.15,0,0,0-.38-3,5.68,5.68,0,0,1-2.26,2.63,6.68,6.68,0,0,0,.36-4.25c.11.44-.91,1.83-1.16,2.21a4.48,4.48,0,0,1-1.89,1.82,34.2,34.2,0,0,1,.56-3.54,24.53,24.53,0,0,0,.08-3.83c-.21-3.83-1.15-7.51-3.69-10.45a12.41,12.41,0,0,0-8.65-4.48,26.65,26.65,0,0,0-8.6,1.1,13.55,13.55,0,0,1,9.18,2.86,6.48,6.48,0,0,0-1.87-.13c-.7,0-1.4-.05-2.1-.05a26.22,26.22,0,0,0-4.06.28c-4.89.76-8.79,4-12.61,6.87a21.19,21.19,0,0,0-1.8,1.24l-.17.2c.13-.27.26-.54.4-.81,1.92-3.95,2.63-5.66,4.35-7.2a13.1,13.1,0,0,0-2.24,1.54,18.57,18.57,0,0,0-4.07,5.36c-.37.68-.71,1.38-1.08,2.06a0,0,0,0,0,0,0l-.24.41a3.58,3.58,0,0,1-1.37,1.65c-1.62.67-9.82,5.27-13.27,5.11S187,169.6,188,165.23c.76-3.32,3.41-6,7.83-7.85h0q8-2.7,15.93-5.89c4.88-2,9.68-4.23,14.93-5a25.45,25.45,0,0,1,11.64.67c4.34,1.43,6.86,4.47,8.58,8.59.13-.14.25-.29.39-.43.19,1.22.46,2.43.75,3.63a19.14,19.14,0,0,1,1,5.08C249.07,164.7,249.12,166,249.14,166.78ZM228,186.08c6.92-3.07,9.6-11.62,7.76-18.6,2.33,3.83,3.11,8.89.79,12.91-1.7,2.93-3.78,6-6.92,7.57-4.74,2.34-10.46.27-14.54-2.49s-5.8-7.64-6.29-12.29c1,3.85,2.76,7.67,5.93,10.21C218.37,186.34,223.32,188.6,228,186.08Zm-9-18.56c4.23-2,7.43,5.47,3.64,7.48C218.58,176.37,214.8,169.66,218.9,167.52Zm-28.23,70c.09-.3-2.72-3.16-3-3.48a31.21,31.21,0,0,1-4.33-6.86c-1.18-3-1.56-6.66-2-9.83-1.51-11.5-1.16-25.06,5.82-34.87,3.33-4.67,9.48-7.22,15.16-7.16a16.2,16.2,0,0,1,1.11,2.36,34.36,34.36,0,0,0,2.24,3.91c4.22,6.13,12.38,9.38,19.69,9.06a15.68,15.68,0,0,0,8.11-2.52,14.48,14.48,0,0,0,3-2.7c1.68.48,2.37,2.36,2.71,3.89a20.42,20.42,0,0,1,.39,2.7,6,6,0,0,1-.38,3.23,9.81,9.81,0,0,1-2.72,3.22c-3.37,2.7-8.05,3.25-12.23,3.06a31.17,31.17,0,0,1-13.65-3.9c-.23-.12-.45-.26-.67-.39.28.16.53.58.76.81s.55.57.84.84c.58.57,1.18,1.11,1.81,1.62a26.39,26.39,0,0,0,7.22,4.34,10.15,10.15,0,0,0,2.42.63c.85.1,1.71,0,2.57.06-7.53,6.2-16.93,9.62-24.29,16a47.52,47.52,0,0,0-4.88,4.95,25.66,25.66,0,0,0-2.84,3.9A29,29,0,0,0,190.67,237.51ZM221,276.89c-8.51-5.32-13-16.41-14.49-24.86S208,234.19,208,234.2c.13-.54.26-1.07.4-1.6l-.13,0c-1.87,3.66-5.07,7.39-5.16,17a14.14,14.14,0,0,0-2.06-1.18,6.26,6.26,0,0,1-1.53-1,4.2,4.2,0,0,1-.61-2.08,8.54,8.54,0,0,1,.87-4.29,16.26,16.26,0,0,1,1.36-2.31,17.41,17.41,0,0,0-.19,1.83c-.14,2.78.7,3.74.7,3.74s-.48-4.6,4.31-11.78a36.93,36.93,0,0,1,6.88-6.18c1.14-.79,2.48-1.25,3.61-2s2.22-1.49,3.29-2.26c-7.63,1.62-13.92,7.11-18.5,13.2-1.38,1.84-2.46,3.87-3.81,5.74-.41.57-1.18,1.25-1.87.62-.45-.4-.36-1.26-.38-1.81a13.29,13.29,0,0,1,.87-5,24.52,24.52,0,0,1,5.66-8.49,53,53,0,0,1,13.51-9.49,63.74,63.74,0,0,0,9.76-6.3c3.6-2.63,7.36-5,11.07-7.47,1.81-1.19,3.62-2.4,5.38-3.67.87-.64,1.74-1.3,2.58-2,.4-.33.8-.66,1.19-1s.8-.94,1.16-1a21.09,21.09,0,0,0-3.5,1.56,25.58,25.58,0,0,1-3.41,1.32,14.61,14.61,0,0,1,2-2A9.77,9.77,0,0,1,243.3,195a14.23,14.23,0,0,1,5.39-1.07A6.47,6.47,0,0,0,245,192a25.74,25.74,0,0,1,4.51-2.27,11.59,11.59,0,0,0,3.93-2.11,54.64,54.64,0,0,0,3.94-3.82,39.24,39.24,0,0,0,8-17,72.62,72.62,0,0,0,1.45-16.72c0-1.64-.14-3.44-1.25-4.66q0,6.88-.34,13.78c-.24,5.84-2.56,10.42-5.09,15.54-1.56,3.15-3,6.61-5.94,8.54-2.22,1.46-5,1.8-7.61,2.07a14.71,14.71,0,0,0,4.19-5.41,42.9,42.9,0,0,0,1.88-5.27,33,33,0,0,0,1.33-4,36.77,36.77,0,0,0,1-11.2c-.45-3.76-.84-7.7-2.76-11.05a17.86,17.86,0,0,0-10.6-6.76,17.38,17.38,0,0,0-6.35-.1c-2,.28-4.09.5-6.12.86a77.37,77.37,0,0,0-12.41,3.26,44.21,44.21,0,0,0-5.29,2.64,58.31,58.31,0,0,1-11.15,4.77,27.91,27.91,0,0,1-2.85.64c.18,0,.6-.89.69-1l1.87-2.79c3.66-5.45,7.31-10.91,11.05-16.3,1.07-1.55,2.56-3,3.09-4.82a3.81,3.81,0,0,0-1-3.93,4.59,4.59,0,0,0-.81-.66s2.88-11.72,5.11-11.67,4.9,5,9.87,6.16A80.77,80.77,0,0,1,246.2,125a9.44,9.44,0,0,1,4.33,3.5c1.77,3,4.39,5.28,6.13,8.26a39,39,0,0,1,3.08,6.81c-.61-4.82-2.82-9.24-5.48-13.23-1.4-1.85-3.37-3.14-4.79-5a28.14,28.14,0,0,1,6.47,4.88c4.25,4.24,5.88,10.22,7.58,15.79.16-1,.31-2,.46-3.05-1.88-6.57-4.89-13.16-10.12-17.72a31.67,31.67,0,0,0-7.52-4.29c3.19-.57,6.42.05,9.62.26,8.75.47,17.27,2.69,25.55,5.45,8.08,2.69,16.47,5.31,24.29,8.68,6.48,2.8,14.6,7.75,14.37,15.83a21.93,21.93,0,0,0,.43,5.73,35.61,35.61,0,0,0-7.32-3.39,49.57,49.57,0,0,1,9.15,7.86,10.22,10.22,0,0,1,.42,1,14.65,14.65,0,0,1,.57,2.18,2.74,2.74,0,0,1-1.94-.29c-8.16-3.58-16.18-12.49-25.94-9.46-3.12,1.1-5.13,4-6.73,6.69l-.75.06c.52,0,1-4.69,1.08-5.24a43.9,43.9,0,0,0,.19-5.5,56.75,56.75,0,0,0-.82-8.83c-.25-1.49-.57-3-.95-4.42a9.7,9.7,0,0,0-.6-1.82,15.1,15.1,0,0,1-1-1.66,46.16,46.16,0,0,1,1.13,15.14,72.64,72.64,0,0,1-2.76,15.06,71.14,71.14,0,0,0-2.55,12.77,72.74,72.74,0,0,0,.14,13,125.64,125.64,0,0,0,3.31,21.84c.11.43.23.85.36,1.27,1.37,4.42,1.8,6.88-1,6.93l-.31-.17c-8.52-3.69-18.22-5.77-27.4-3.53a15.66,15.66,0,0,0-6.44,3.45l-.1.09a17.73,17.73,0,0,0-3.1,3.64,17.39,17.39,0,0,0-2.12,7h0l-.06.18a30.1,30.1,0,0,0,.83,9.53c2.24,9.46,4.69,14.81,18.79,22.28,0,0-.42,3.75-.44,4a7.53,7.53,0,0,1-1.29,3.85c-1.14,1.52-3,2.29-4.78,3s-3.78,1.37-5.69,2a75,75,0,0,1-16.3,3.46C231.18,279.35,225.35,279.64,221,276.89Zm38.09-56c7.19-2.6,15.19-.74,22,2.3,4.41,2.13,9.3,4.92,10.67,10C283.22,224.53,270.66,221.86,259,220.87Zm25.81,32.72a1.83,1.83,0,0,1-.48.39,5.29,5.29,0,0,1-1.36.45,4.15,4.15,0,0,1-2.29-.09c-.62-.24-1.08-.56-1-1.28.22-1.82,2.58-2.43,4.11-2.41a1.36,1.36,0,0,1,1.37,1.15A2.38,2.38,0,0,1,284.85,253.59Zm-25.08-24.12c-1.39.11-3.23.36-4.38-.63a2.42,2.42,0,0,1-.73-1.16,2.72,2.72,0,0,1,.77-2.75c1.1-1,2.9-1,4.29-1a17.49,17.49,0,0,1,7,.9,1.45,1.45,0,0,1,.78,2.15,2.9,2.9,0,0,1-1.31,1.21,7.34,7.34,0,0,1-1.72.55A30.39,30.39,0,0,1,259.77,229.47Zm3.83,16.93a.79.79,0,0,1-.15.25l0,0a.64.64,0,0,1-.44.1,4,4,0,0,1-2.4-.83A1.7,1.7,0,0,1,260,245c-.06-.32-.08-.91.25-1.1a.81.81,0,0,1,.35-.07,6.06,6.06,0,0,1,2.65.08C264.19,244.33,263.9,245.64,263.6,246.4ZM259,248.73l0,.05c-.15.2-.59.19-.81.15a1.93,1.93,0,0,1-1.28-1.08,2.79,2.79,0,0,1-.12-1.46.26.26,0,0,1,.05-.12c.32-.38,1.41.79,1.58,1S259.15,248.34,259,248.73Zm14.76,42.39a9.8,9.8,0,0,1-1.29.44l-.22.05c-1.17.23-2.3.62-3.46.87s-2.42.48-3.64.63a43.33,43.33,0,0,1-21.77-2.91,40.17,40.17,0,0,1-4-1.91c-.64-.35-1.26-.71-1.89-1.08-1.25-.73-2.41-1.5-3.62-2.27a5.64,5.64,0,0,1-1.41-1.27c2.67.57,6,.87,13.73-1.13a85.43,85.43,0,0,0,9.77-3,42.69,42.69,0,0,1,8.78-2.13,26.66,26.66,0,0,0,12.59,12.13l.18.08Zm23.15-10.84c-3.11,3.65-7.11,8.2-12.43,7.4a11.28,11.28,0,0,1-5-1.72l0,0c-2.43-1.36-5-2.78-6.6-4.84h0a30.08,30.08,0,0,1-5.1-9.25l2.55-8.77a15.26,15.26,0,0,0,4.88.24,31.13,31.13,0,0,0,4.2-1l.32-.1c4.48-1.44,9.47-4,11.5-7.86l.39-.71a65.23,65.23,0,0,0,3.85-8.63c.7-2,1.7-4.26,1.7-6.38,0-.41.07-.82.1-1.22v0c.86-9.66-6.37-16.78-8.55-22.94a120.64,120.64,0,0,1-3.47-14.82,155.94,155.94,0,0,0,6.74,15,107.15,107.15,0,0,1,11.5,35.93C304.56,260.71,303.72,272.05,296.9,280.28Zm16.71-86.07a26.1,26.1,0,0,0,2.15-10.06c1,4.61-.78,9.11-2.94,13.12a11.42,11.42,0,0,1-6.77,5q-.46.15-.93.27a10.6,10.6,0,0,1-6.53-.57,12.4,12.4,0,0,1-5.85-4.46,9,9,0,0,1-.7-1.25c-.1-.21-.19-.43-.27-.64s-.11-.56-.22-.68c1.59,1.67,2.84,3.76,5,4.82C302.38,202.91,311,200.58,313.61,194.21Zm-16.27-6.55c.59-1.11,2.09-1.54,2.71-.24a1.25,1.25,0,0,1,0,1.13,2.94,2.94,0,0,1-1.82,1.27.84.84,0,0,1-.87-.26A2,2,0,0,1,297.34,187.66Zm9.58-4.18v0c.07-.87,1.84-.7,2.39-.67s2.81.14,2.93.69a4.25,4.25,0,0,1-.1,1.84,2.14,2.14,0,0,1-.77,1.23C309.84,187.63,306.84,185.11,306.92,183.48Zm14.54-1.16,0,0c-.18-.2-.35-.41-.5-.61a34.39,34.39,0,0,0-4.54-5,22,22,0,0,0-5.74-3.33c-2.6-1.24-5.95-.49-6.07-.53a29,29,0,0,0,5.32,1.75h0a14.49,14.49,0,0,1,4.63,2.14c2.47,1.71,7.89,7.77,9.26,11.42v0c1.93,4.36.69,10.18,0,13.31s-5.11,6-8,7.82l0,0-.48.35a37.62,37.62,0,0,1-3.31,2c-.57.31-1.14.61-1.72.9a6.58,6.58,0,0,1-1.72.81c3.41-.34,6.66-1.67,10.06-2.09a2.45,2.45,0,0,1,1.7.26c1,.65,1.23,2.16,1.21,3.28-.06,4-2.5,12.06-5.29,18.36a84.11,84.11,0,0,1-8.33,13.59s-1.42-7.17-2.79-12.93l-.07,0,0-.18c-.57-2.4-1.13-4.55-1.57-5.8l0-.09c-.29-.69-.55-1.39-.8-2.11-1.34-3.38-2.69-6.78-4.24-10.08-.57-1.19-1.15-2.36-1.65-3.56a10.35,10.35,0,0,1,1.89-4.61,6.27,6.27,0,0,0-2.86,1.86c-.39-1.23-.75-2.47-1.1-3.72l-.18-.63a2.2,2.2,0,0,1,.83.2c7.11,1.68,15.9-.13,19.34-6.39,3.58-6.51,6.29-5.44,7.16-6.45.64-.74.51-2.59-.61-5-.4-.78-.84-1.55-1.3-2.31-.08-.12-.16-.25-.25-.37-.5-.73-1-1.47-1.48-2.21-3-4-6.83-7.14-11-7.24-12.87.56-20.48,17.55-20.48,17.55s-.17-.76-.39-2a29.9,29.9,0,0,1,3.88-6.61,19.2,19.2,0,0,0-4.32,3.89c-.09-.66-.19-1.37-.27-2.11.86-2.48,2.59-6.51,5.46-9.06a10.49,10.49,0,0,0-4.47,3.36,16.88,16.88,0,0,0-1.27,2,29.24,29.24,0,0,1,.16-5.34c.87-6.33,2.29-8.75,7.26-12.69a12.58,12.58,0,0,1,3.35-2.19,18.08,18.08,0,0,1,5.15-1,18.7,18.7,0,0,1,4.36.07,22.36,22.36,0,0,1,5.47,1.91,26.07,26.07,0,0,1,2.48,1.24c2.53,1.49,4.52,3.68,6.69,5.6s3.75,3.48,4.61,6.26a19.29,19.29,0,0,1,.84,5.93C325.62,185.78,322.87,184.06,321.46,182.32ZM334.7,150.9c-2.6-6.06-1.82-8.92-1.82-8.92,2.51,3.55,6.49,12.21,7.27,22.42C340.15,164.4,337.3,157,334.7,150.9Zm9.58,30.75a39.22,39.22,0,0,1-1.09,7.15c.11-1,.22-1.92.25-2.89a115.63,115.63,0,0,0-1-17.14,101.12,101.12,0,0,0-1.76-11.89A62.21,62.21,0,0,0,336.87,146c-1.37-3.06-3-6.14-5.58-8.34a4.32,4.32,0,0,0-3.91-1c-.75.14-1.35.72-2.11.84a3.77,3.77,0,0,1,3,1.18,6,6,0,0,0-6,3.31,15.84,15.84,0,0,1,1.79-6.38,4.85,4.85,0,0,1,3.92-3c3.77-.27,7,4.27,8.67,7.09a52.87,52.87,0,0,1,6.24,15.78c.42,1.89.77,3.8,1.05,5.71a82.89,82.89,0,0,1,.83,13.36C344.7,177,344.43,179.31,344.28,181.65Zm34.18.76c-2.46,6.47-8.43,11.36-11.87,19.14s-11.12,19-13.3,20.72-7.65-1.81-8.17-18.82a81.69,81.69,0,0,1,1.42-18.34c.53-2.63,1-5.81,2.31-8.22,1.55-2.93,5.72-4.56,8.67-5.57a5.47,5.47,0,0,1,2.78-.4,5.84,5.84,0,0,1,3.14,2.43l2.81,3.49a1.91,1.91,0,0,0,.7.63,1.47,1.47,0,0,0,.72.06c1.47-.2,2.53-1.46,3.65-2.43C375.75,171.27,380,178.37,378.46,182.41Z" transform="translate(-115.83 -92.31)"/><path class="cls-7" d="M263.38,163a59.13,59.13,0,0,0,1-10.46c-1.4,3.52-1.35,7.39-1.81,11.11C262.78,163.44,263.19,163.12,263.38,163Z" transform="translate(-115.83 -92.31)"/><path class="cls-7" d="M228.24,242.62a3.82,3.82,0,0,0-3.1-2.84,2.85,2.85,0,0,0-2.4,1.12,2.13,2.13,0,0,0-.43,2.69,2.82,2.82,0,0,0,3.18,1.53C226.59,244.92,228.47,244,228.24,242.62Z" transform="translate(-115.83 -92.31)"/><path class="cls-7" d="M232.18,247.31c-1.15.08-2.85,1.51-2.87,2.76,0,2.25,3.1,4.16,4.82,2.33a2.74,2.74,0,0,0,1.22-2.24A2.94,2.94,0,0,0,232.18,247.31Z" transform="translate(-115.83 -92.31)"/><path class="cls-7" d="M294,258.68c-1.15.07-2.85,1.5-2.87,2.76,0,2.24,3.1,4.16,4.82,2.32a2.74,2.74,0,0,0,1.22-2.23A3,3,0,0,0,294,258.68Z" transform="translate(-115.83 -92.31)"/><path class="cls-7" d="M282.07,272.74c-1.15.07-2.84,1.5-2.87,2.76,0,2.24,3.11,4.16,4.82,2.32a2.75,2.75,0,0,0,1.23-2.23A3,3,0,0,0,282.07,272.74Z" transform="translate(-115.83 -92.31)"/><path class="cls-7" d="M291.29,270.21c-1.84,1.29-1.55,5,.95,5.27a2.76,2.76,0,0,0,2.52-.33,3,3,0,0,0,.45-4.24C294.47,270,292.32,269.49,291.29,270.21Z" transform="translate(-115.83 -92.31)"/><path class="cls-7" d="M219,249.81c-.87.65-1.9,1.6-1.71,2.79.32,2.12,3.52,2.75,4.82,1.21C224.34,252,221.36,248,219,249.81Z" transform="translate(-115.83 -92.31)"/><path class="cls-7" d="M229.57,258.77c-1.37-.46-4.33-.26-4.46,1.74a5.72,5.72,0,0,0,.09,2c.73,2.64,4.74,2.67,6.28.85C233.55,261.83,231.3,259.35,229.57,258.77Z" transform="translate(-115.83 -92.31)"/><path class="cls-7" d="M212.57,307a45.13,45.13,0,0,0,8.51,10.64,21.39,21.39,0,0,0,11.1,5.29c-.36-.05-1-.8-1.32-1-.46-.36-.93-.68-1.39-1a24.66,24.66,0,0,1-2.75-2.56,44.16,44.16,0,0,1-6.12-8A64.67,64.67,0,0,1,215.27,299a53.37,53.37,0,0,1-2.6-9.93c-.33,5.17-.26,10.52,1.69,15.32a31.49,31.49,0,0,1-3-5.7c-.9-2-1.82-3.94-2.52-6-1.27-3.79-2.79-7.54-3.48-11.49a32.26,32.26,0,0,0-.91-4.6,27.57,27.57,0,0,0,.16,7.64c.12,1.06.25,2.13.46,3.18a61.61,61.61,0,0,0,7.27,19.16Z" transform="translate(-115.83 -92.31)"/><path class="cls-7" d="M254.92,344.68c-.43-2.92-.16-6.06-1.67-8.69.74,7.14.07,14.27-.6,21.39C255.11,353.74,255.41,349,254.92,344.68Z" transform="translate(-115.83 -92.31)"/><path class="cls-7" d="M251.85,368.28c-2.59,4-5.9,7.31-9,10.86-2.13,2.37-3.61,5.58-2.78,8.82,2.4-1.16,3.88-3.49,5.78-5.26,2.16-2.26,4.72-4.17,6.54-6.73a29.29,29.29,0,0,0,2.32-9.73A4.81,4.81,0,0,0,251.85,368.28Z" transform="translate(-115.83 -92.31)"/><path class="cls-7" d="M251.72,302.27c-8.75,2.74-19.06,1.59-24-2.39a17,17,0,0,0,12.71,5.92C248.8,306,251.72,302.27,251.72,302.27Z" transform="translate(-115.83 -92.31)"/><path class="cls-7" d="M184.35,321.32s4.57,11.46,10.81,18.2,20,12.4,26.86,22.94a39.07,39.07,0,0,0-6.28-11.16c-4.14-4.84-9.05-6.61-15.57-11.68S184.35,321.32,184.35,321.32Z" transform="translate(-115.83 -92.31)"/><path class="cls-7" d="M297.5,174.05c-.26.07-.53.15-.8.25a7.71,7.71,0,0,0-.77.3,9.82,9.82,0,0,0-5.05,4.33,13.13,13.13,0,0,1,5.05-2.76,37.23,37.23,0,0,1,8.56-1.81c.51,0,1-.06,1.41-.06A16.66,16.66,0,0,0,297.5,174.05Z" transform="translate(-115.83 -92.31)"/></g></g></g></svg>